<?xml version="1.0" encoding="utf-8"?>
<!-- Generator: Adobe Illustrator 17.1.0, SVG Export Plug-In . SVG Version: 6.00 Build 0)  -->
<!DOCTYPE svg PUBLIC "-//W3C//DTD SVG 1.1//EN" "http://www.w3.org/Graphics/SVG/1.1/DTD/svg11.dtd">
<svg version="1.1" id="camera" xmlns="http://www.w3.org/2000/svg" xmlns:xlink="http://www.w3.org/1999/xlink" x="0px" y="0px"
	 viewBox="0 0 1009.9824 1009.9345" enable-background="new 0 0 1009.9824 1009.9345" xml:space="preserve">
<g id="camera-label">
	<path fill="#F6AB38" d="M504.9824,1009.9345c278.8799,0,505-226.0605,505-504.9589C1009.9824,226.1191,783.8623,0,504.9824,0
		C226.1015,0,0,226.1191,0,504.9756C0,783.874,226.1015,1009.9345,504.9824,1009.9345z"/>
</g>
<g id="camera-camera">
	<path fill="#FFFFFF" d="M682.667,333.3095H327.3212c-53.3037,0-96.9169,43.6075-96.9169,96.917v192.2071
		c0,53.2968,43.6132,96.917,96.9169,96.917H682.667c53.3095,0,96.9169-43.6202,96.9169-96.917V430.2265
		C779.5839,376.917,735.9765,333.3095,682.667,333.3095z M361.4365,625.6513c0,8.0088-6.5371,14.5401-14.5342,14.5401h-55.7285
		c-7.9971,0-14.5401-6.5313-14.5401-14.5401V436.6855c0-7.9966,6.543-14.5395,14.5401-14.5395h55.7285
		c7.9971,0,14.5342,6.5429,14.5342,14.5395V625.6513z M581.7216,680.5693c-82.5376,0-149.4033-66.8594-149.4213-149.4043
		c0.018-82.5254,66.8837-149.3852,149.4213-149.4092c82.5088,0.024,149.3799,66.8838,149.4034,149.4092
		C731.1015,613.7099,664.2304,680.5693,581.7216,680.5693z"/>
	<path fill="#FFFFFF" d="M581.7216,415.6865c-63.7841,0.1074-115.3779,51.7002-115.4907,115.4785
		c0.1128,63.7617,51.7066,115.3662,115.4907,115.4854c63.7607-0.1192,115.3663-51.7237,115.4854-115.4854
		C697.0879,467.3867,645.4824,415.7939,581.7216,415.6865z M672.5722,550.4482c-5.3506,0-9.6894-4.3379-9.6894-9.6767
		c0-5.3633,4.3388-9.7012,9.6894-9.7012c5.3516,0,9.6895,4.3379,9.6895,9.7012
		C682.2617,546.1103,677.9238,550.4482,672.5722,550.4482z M673.7998,521.5361c-0.6787,0.1426-1.3467,0.1904-2.002,0.1904
		c-4.4932,0-8.5332-3.122-9.4863-7.6933c-6.8408-32.3809-32.7988-57.8135-65.4658-63.8682
		c-5.2559-0.9653-8.7364-6.0185-7.7588-11.2861c0.9775-5.2559,6.0302-8.7363,11.2988-7.7588
		c40.4375,7.5205,72.4014,38.8169,80.8867,78.9209C682.3808,515.2724,679.0205,520.415,673.7998,521.5361z"/>
	<path fill="#FFFFFF" d="M654.4687,290.5835h-57.0986c-28.544,0-32.1787,18.6157-33.2158,36.0757h123.5185
		C686.6474,309.1992,682.2382,290.5835,654.4687,290.5835z"/>
</g>
</svg>
