<?xml version="1.0" ?><svg viewBox="0 0 512 512" xmlns="http://www.w3.org/2000/svg"><defs><style>.cls-1{fill:#f2ddd4;}.cls-2{fill:#739e71;}.cls-3{fill:#427c54;}.cls-4{fill:#e0893b;}.cls-5{fill:#ffbd55;}.cls-6{fill:#ff7769;}.cls-7{fill:#524b92;}.cls-8{fill:#7b6edc;}.cls-13,.cls-9{fill:#020202;}.cls-10{fill:#c64e39;}.cls-11{fill:#fe9b7e;}.cls-12{fill:#fb6355;}.cls-13{fill-rule:evenodd;}.cls-14{fill:#4e4e56;}.cls-15{fill:#ffbd54;}.cls-16{fill:#fff;}.cls-17{fill:#edf1f4;}.cls-18{fill:#cedff2;}.cls-19{fill:#9e5458;}.cls-20{fill:#eaa542;}.cls-21{fill:#b96062;}.cls-22{fill:#a24547;}.cls-23{fill:#873030;}</style></defs><title/><g id="Friendship"><path class="cls-1" d="M178.24,80.61C74.72,125,19.13,267.43,59.71,328.32c6.7,10.06,23.14,28.56,47.77,39,34,14.44,55,1.43,80.45,20.72,13.54,10.26,9.94,15.68,30.19,35.25,13,12.54,33.91,26.86,43.44,31.27,27,12.51,78.47.76,127.07-34.81,6.71-5,82.26-63.35,77.58-158.77C463,194.55,422.8,151.62,411.76,140.53,399,126.08,361.84,87.7,299.68,73.16,284.49,69.61,232.19,57.49,178.24,80.61Z"/><path class="cls-2" d="M416.64,322s-2-30.36-18.05-37.34S392,311,416.64,322Z"/><path class="cls-2" d="M428.5,294s-2-30.36-18-37.34S403.88,283.05,428.5,294Z"/><path class="cls-2" d="M435.71,259s-2-30.35-18-37.34S411.09,248,435.71,259Z"/><path class="cls-2" d="M427.62,294.52s12-28,29.39-29.26S454.48,292.32,427.62,294.52Z"/><path class="cls-2" d="M415.21,323.42s16.2-25.75,33.62-24.3S442.09,325.45,415.21,323.42Z"/><path class="cls-2" d="M435.15,259.45s5.22-30,21.89-35.23S460.79,251.14,435.15,259.45Z"/><path class="cls-3" d="M390.36,352.24a1,1,0,0,1-.23-.23,1.29,1.29,0,0,1,.25-1.82C423,325.32,432,284,433.82,253.65a249.3,249.3,0,0,0-3.92-60.6,1.3,1.3,0,0,1,2.54-.55,252.77,252.77,0,0,1,4,61.31c-1.18,19.6-4.83,37.29-10.85,52.58C418,325.56,406.71,341,392,352.26A1.31,1.31,0,0,1,390.36,352.24Z"/><path class="cls-4" d="M434.55,179.1a.28.28,0,0,1-.12-.21l-3.59-23.19a.33.33,0,0,1,.27-.37.33.33,0,0,1,.38.27l3.58,23.2a.32.32,0,0,1-.27.37A.37.37,0,0,1,434.55,179.1Z"/><circle class="cls-5" cx="431.04" cy="154.68" r="2.41"/><path class="cls-4" d="M429.16,184.57a.23.23,0,0,1-.1-.12l-9-21.68a.34.34,0,0,1,.18-.43.33.33,0,0,1,.42.18l9,21.68a.32.32,0,0,1-.18.42A.29.29,0,0,1,429.16,184.57Z"/><circle class="cls-5" cx="420" cy="161.73" r="2.41"/><path class="cls-4" d="M440.3,178.49a.32.32,0,0,1-.11-.32l5.26-22.88a.32.32,0,0,1,.63.15l-5.26,22.87a.32.32,0,0,1-.39.25A.33.33,0,0,1,440.3,178.49Z"/><circle class="cls-5" cx="446.01" cy="154.42" r="2.41"/><path class="cls-5" d="M432.27,176.4c3.87-8.42,8.56-14,12.08-13.36a4.1,4.1,0,0,1,2.34,1.5c2.73,3.53-1.94,10.9-1.94,10.9s9.37-11,12.21-2.23-15.78,27.77-27,27.67c-14.54-.13-27-16.09-24.62-20.94,1.43-2.86,8.3-2.36,14-1.47-1.32-5.24-1.11-10,.93-11.11C422.55,166.11,427.85,169.37,432.27,176.4Z"/><path class="cls-2" d="M111,275.59s2-29.84,17.73-36.7S135.23,264.81,111,275.59Z"/><path class="cls-2" d="M99.38,248.09s2-29.83,17.73-36.7S123.57,237.31,99.38,248.09Z"/><path class="cls-2" d="M92.29,213.69s2-29.84,17.73-36.71S116.49,202.9,92.29,213.69Z"/><path class="cls-2" d="M100.24,248.59s-11.75-27.5-28.88-28.77S73.84,246.42,100.24,248.59Z"/><path class="cls-2" d="M112.44,277s-15.92-25.31-33-23.88S86,279,112.44,277Z"/><path class="cls-2" d="M92.84,214.12s-5.13-29.47-21.52-34.63S67.64,206,92.84,214.12Z"/><path class="cls-3" d="M136.87,305.32a1.61,1.61,0,0,0,.22-.23,1.28,1.28,0,0,0-.24-1.79c-32-24.45-40.91-65.09-42.71-94.88A245.54,245.54,0,0,1,98,148.86a1.28,1.28,0,0,0-2.5-.55,248.15,248.15,0,0,0-3.91,60.26c1.16,19.26,4.75,36.65,10.66,51.68,7.42,18.85,18.54,34,33.05,45.08A1.29,1.29,0,0,0,136.87,305.32Z"/><path class="cls-4" d="M93.43,135.14a.32.32,0,0,0,.12-.2l3.52-22.8a.31.31,0,0,0-.26-.36.32.32,0,0,0-.37.26l-3.52,22.8a.32.32,0,0,0,.27.37A.33.33,0,0,0,93.43,135.14Z"/><circle class="cls-5" cx="96.88" cy="111.14" r="2.37"/><path class="cls-4" d="M98.73,140.52a.29.29,0,0,0,.1-.12l8.85-21.31a.32.32,0,1,0-.59-.24l-8.85,21.3a.32.32,0,0,0,.17.42A.33.33,0,0,0,98.73,140.52Z"/><circle class="cls-5" cx="107.73" cy="118.07" r="2.37"/><path class="cls-4" d="M87.78,134.55a.34.34,0,0,0,.11-.33l-5.17-22.48a.32.32,0,0,0-.38-.24.32.32,0,0,0-.24.39l5.17,22.48a.32.32,0,0,0,.38.24A.52.52,0,0,0,87.78,134.55Z"/><circle class="cls-5" cx="82.17" cy="110.89" r="2.37"/><path class="cls-5" d="M95.67,132.48c-3.8-8.27-8.42-13.78-11.87-13.12a4.06,4.06,0,0,0-2.3,1.47c-2.68,3.47,1.91,10.71,1.91,10.71s-9.21-10.8-12-2.19,15.5,27.3,26.55,27.2c14.29-.13,26.58-15.82,24.2-20.58-1.4-2.81-8.15-2.32-13.73-1.44,1.3-5.16,1.09-9.85-.91-10.92C105.22,122.38,100,125.57,95.67,132.48Z"/><rect class="cls-6" height="69.31" rx="16.25" width="39.69" x="171.44" y="250.01"/><path class="cls-7" d="M213.51,292.51a193.71,193.71,0,0,1,46.34,14.88c23.06,11.05,69.06,2.06,91.42,0V346.2s-64.76,25.36-114.11,12.68S213.51,292.51,213.51,292.51Z"/><path class="cls-8" d="M211.13,292.07C223,293,234,296.36,242,304.31c16.5,16.27,10.24,41.55,12.85,89.69a461.54,461.54,0,0,0,7.05,59S194.78,477.08,127,460.61a301.54,301.54,0,0,0,8.6-47.32C141.46,354.67,127.45,319.1,148,301c3.85-3.4,10.82-7.88,23.49-8.91,3.51,14.05,16.81,21.24,26.67,18.06C205,307.91,210.1,300.66,211.13,292.07Z"/><path class="cls-8" d="M163.87,293.21s-34.44,6.34-40.14,20.6S94.52,451.06,94.52,451.06s14.17,9.85,47.56,12.57Z"/><path class="cls-7" d="M130.94,463.1l-.18,0a1.48,1.48,0,0,1-1.31-1.66l13.33-111.29a1.59,1.59,0,0,1,.14-.47c7.94-16.57.09-32.7,0-32.86a1.5,1.5,0,1,1,2.68-1.34c.35.7,8.53,17.42.12,35.27l-13.31,111A1.49,1.49,0,0,1,130.94,463.1Z"/><path class="cls-9" d="M132.81,184.92c-12.41,36.55-13.19,66.51-12.08,85.33,1.24,20.87,3,45.19,18.77,53.59,6.65,3.54,18.15,5.45,28.78,2.31,3.67-1.08,7-2.12,9.25-5.14,5.45-7.36-1-19.37-3.85-28.53-3.44-11.07-4.72-28.14,6.32-53.42a40.48,40.48,0,0,1-18.23-3.17C144.57,228.44,133.77,208.48,132.81,184.92Z"/><path class="cls-9" d="M255,186.11c10,37,9.14,66.89,7,85.7-2.41,21-5.48,45-21.61,52.5-6.83,3.19-18.42,4.47-28.87.77-3.6-1.28-6.89-2.49-9-5.63-5.05-7.64,2.05-19.28,5.38-28.28,4-10.88,6.22-27.85-3.45-53.68a41.09,41.09,0,0,0,18.37-2.19C240.51,228.8,252.52,209.53,255,186.11Z"/><path class="cls-6" d="M138.92,226a12.59,12.59,0,0,0-9.72-2.55,9.67,9.67,0,0,0-5.47,2.79c-4.63,5.45-.9,20.54,8.51,23.46,5.26,1.63,10.33-1.15,12-2.19Q141.6,236.79,138.92,226Z"/><path class="cls-10" d="M135.24,244.74a.51.51,0,0,1-.31-.11c-2.52-1.93-3.81-4.1-3.83-6.44a9.1,9.1,0,0,1,2.64-6l-7,1.13a.5.5,0,1,1-.15-1l8.6-1.39a.5.5,0,0,1,.53.3.48.48,0,0,1-.14.59s-3.48,2.8-3.45,6.31c0,2,1.18,3.91,3.44,5.65a.5.5,0,0,1,.09.7A.49.49,0,0,1,135.24,244.74Z"/><path class="cls-6" d="M247.56,226a12.64,12.64,0,0,1,9.73-2.55,9.65,9.65,0,0,1,5.46,2.79c4.64,5.45.91,20.54-8.5,23.46-5.26,1.63-10.33-1.15-12-2.19Z"/><path class="cls-10" d="M251.25,244.74a.5.5,0,0,1-.3-.9c2.26-1.74,3.42-3.64,3.43-5.65,0-3.51-3.41-6.28-3.44-6.31a.5.5,0,0,1-.15-.59.52.52,0,0,1,.54-.3l8.6,1.39a.5.5,0,1,1-.16,1l-7-1.13a9.14,9.14,0,0,1,2.63,6c0,2.34-1.3,4.51-3.83,6.44A.48.48,0,0,1,251.25,244.74Z"/><circle class="cls-11" cx="192.9" cy="217.18" r="59.89"/><path class="cls-11" d="M252.8,208.29c5,41.08-23.14,74.89-54.17,77.49-28.13,2.35-53.54-21.37-62.16-45.43A65.38,65.38,0,0,1,133,213.12c8.6-6.14,24.73-13.4,45.88-19C204.16,187.32,234.11,186.12,252.8,208.29Z"/><ellipse class="cls-12" cx="228.8" cy="244.8" rx="5.74" ry="8.36" transform="translate(-18.34 471.07) rotate(-89.41)"/><ellipse class="cls-12" cx="165.82" cy="244.8" rx="5.74" ry="8.36" transform="translate(-80.67 408.08) rotate(-89.41)"/><path class="cls-10" d="M195.74,243.23a31.68,31.68,0,0,1-3.2-.18,1,1,0,0,1,.21-2c2.8.3,5.78.15,6.37-.31.33-1.31-1.09-8.38-2.64-14.31a1,1,0,0,1,1.94-.51c2.45,9.46,3.23,14.84,2.32,16C200,243,197.77,243.23,195.74,243.23Zm3.36-2.41Z"/><path class="cls-9" d="M163.86,215.07a15.12,15.12,0,0,1,8.47-3.54c2.11-.22,5-.52,6,1.07a2.33,2.33,0,0,1,.13,2.34c-.89,1.41-3.48.4-7.51.69-5.31.37-8.6,2.66-9,1.93C161.62,217,163.23,215.62,163.86,215.07Z"/><path class="cls-9" d="M230.35,215.07a15.16,15.16,0,0,0-8.47-3.54c-2.11-.22-5-.52-6,1.07a2.33,2.33,0,0,0-.13,2.34c.88,1.41,3.47.4,7.51.69,5.31.37,8.6,2.66,9,1.93C232.58,217,231,215.62,230.35,215.07Z"/><path class="cls-10" d="M196.59,270.91A9.24,9.24,0,0,1,191,269.3a.5.5,0,0,1,.6-.8c3.57,2.68,9.67.69,9.73.67a.5.5,0,0,1,.64.32.51.51,0,0,1-.32.63A17.75,17.75,0,0,1,196.59,270.91Z"/><path class="cls-13" d="M217.64,223.35a5.81,5.81,0,1,0,8.14,1.16,5.79,5.79,0,0,0-8.14-1.16"/><path class="cls-9" d="M233.32,223.66a7.13,7.13,0,0,1-2.92,2,3.82,3.82,0,0,1-3-.36c-1-.52-1.91-1.39-3.1-2.06a5,5,0,0,0-4-.66,7.6,7.6,0,0,1,3.14,1.81,18.34,18.34,0,0,0,3,2.49,4.58,4.58,0,0,0,4.4.08,4.78,4.78,0,0,0,2.35-3.32"/><path class="cls-13" d="M177.5,224.08a5.8,5.8,0,1,1-8.09,1.45,5.78,5.78,0,0,1,8.09-1.45"/><path class="cls-9" d="M161.84,225a7.16,7.16,0,0,0,3,1.91,3.83,3.83,0,0,0,2.94-.47c.94-.55,1.86-1.46,3-2.17a5,5,0,0,1,3.92-.81,7.63,7.63,0,0,0-3.07,1.93,18.24,18.24,0,0,1-2.94,2.6,4.59,4.59,0,0,1-4.4.24,4.82,4.82,0,0,1-2.47-3.23"/><path class="cls-9" d="M160,196.25a.4.4,0,0,0-.78-.1c-1.53,6.38-5.66,17.54-16.51,23.6a31.59,31.59,0,0,1-12.61,3.82.39.39,0,0,1-.43-.33c-1.09-7-4.61-35.06,13.17-55.41,26.37-30.18,85.39-27,106.66,4.63,12.88,19.17,7.9,42.85,6,50.4a.39.39,0,0,1-.29.29,9.91,9.91,0,0,1-3.72.26c-7.74-1-14.09-11.75-17.15-26.87a.4.4,0,0,0-.79.06q-.28,6-.58,12.09a.39.39,0,0,1-.46.37,211.32,211.32,0,0,0-72.16-.95.39.39,0,0,1-.45-.4C159.91,203.89,160,200.07,160,196.25Z"/><path class="cls-14" d="M141,319.82a.48.48,0,0,1-.41-.21c-8.73-12.72-10.14-58.78-10.19-60.74a.5.5,0,0,1,.48-.51.53.53,0,0,1,.52.48c0,.48,1.46,47.73,10,60.2a.5.5,0,0,1-.41.78Z"/><path class="cls-14" d="M165.82,323.57a.5.5,0,0,1-.27-.08c-7.53-4.76-13.48-15.4-17.7-31.62a156.9,156.9,0,0,1-4.08-22.93.5.5,0,0,1,1-.08c0,.43,3.84,42.74,21.31,53.78a.5.5,0,0,1-.26.93Z"/><path class="cls-14" d="M228.8,323.57a.5.5,0,0,1-.2-1c23.7-10.54,24.28-63.22,24.28-63.75a.5.5,0,0,1,.5-.5h0a.5.5,0,0,1,.5.5,158.28,158.28,0,0,1-3.2,28.16c-2.86,13.53-8.94,30.84-21.68,36.5A.46.46,0,0,1,228.8,323.57Z"/><path class="cls-14" d="M211.13,321.25a.5.5,0,0,1-.16-1c21.72-7,25.66-49.49,25.7-49.92a.51.51,0,0,1,.54-.46.5.5,0,0,1,.45.54A117.76,117.76,0,0,1,233,293c-4.92,15.45-12.43,25.21-21.7,28.2A.39.39,0,0,1,211.13,321.25Z"/><path class="cls-14" d="M132.79,215a.5.5,0,0,1-.46-.31.49.49,0,0,1,.26-.65c16.73-7.09,21.91-49.47,22-49.89a.49.49,0,0,1,.55-.44.5.5,0,0,1,.44.55,155.14,155.14,0,0,1-4.7,22.5c-4.58,15.63-10.59,25.12-17.86,28.2A.65.65,0,0,1,132.79,215Z"/><path class="cls-14" d="M256.39,219.31a.36.36,0,0,1-.14,0c-6.5-2-12.22-10.17-17-24.42A151.54,151.54,0,0,1,234,174.15a.5.5,0,0,1,.41-.58.51.51,0,0,1,.58.41c.06.4,6.78,39.9,21.58,44.35a.51.51,0,0,1,.33.63A.5.5,0,0,1,256.39,219.31Z"/><path class="cls-14" d="M221.13,205.34a.53.53,0,0,1-.24-.06.49.49,0,0,1-.2-.67c5.24-9.88,5.75-36.45,5.75-36.72a.52.52,0,0,1,.51-.49.49.49,0,0,1,.49.51c0,1.1-.51,27.08-5.87,37.17A.49.49,0,0,1,221.13,205.34Z"/><path class="cls-14" d="M200.15,205.34a.48.48,0,0,1-.4-.21.5.5,0,0,1,.11-.69c14.28-10.28,15.6-36.3,15.61-36.56a.47.47,0,0,1,.52-.48.5.5,0,0,1,.48.52c0,.27-1.35,26.77-16,37.33A.55.55,0,0,1,200.15,205.34Z"/><path class="cls-14" d="M168.28,205.34a.5.5,0,0,1-.12-1c21.29-5.51,27.68-38.6,27.75-38.93a.5.5,0,0,1,1,.18c-.06.34-6.58,34-28.48,39.72Z"/><path class="cls-7" d="M154.19,385.72s2.17,28.33,30.75,44.78S167.84,416.5,154.19,385.72Z"/><path class="cls-7" d="M234.59,366.92s3.89,28.15-20.55,50.29S227.79,399.9,234.59,366.92Z"/><path class="cls-9" d="M197.22,264.79h-.94c-13.11-.55-19.44-11.93-19.7-12.41a.5.5,0,0,1,.88-.48c.25.47,6.31,11.36,18.86,11.89a22.8,22.8,0,0,0,20.74-11.89.5.5,0,0,1,.88.48A23.83,23.83,0,0,1,197.22,264.79Z"/><rect class="cls-15" height="88.81" rx="1.99" transform="translate(496.33 153.85) rotate(-180)" width="120.55" x="187.89" y="32.52"/><path class="cls-15" d="M295.59,117.25Q290.77,127.62,286,138a1.72,1.72,0,0,1-3.13-.05L274,117.2a1.71,1.71,0,0,1,1.57-2.38H294A1.72,1.72,0,0,1,295.59,117.25Z"/><path class="cls-16" d="M216.62,72.26A35.41,35.41,0,1,1,252,107.66,35.44,35.44,0,0,1,216.62,72.26Zm5.6,0A29.81,29.81,0,1,0,252,42.45,29.84,29.84,0,0,0,222.22,72.26Z"/><path class="cls-16" d="M252,107.66a2.8,2.8,0,0,0,2.8-2.8V39.65a2.8,2.8,0,0,0-5.6,0v65.21A2.8,2.8,0,0,0,252,107.66Z"/><path class="cls-16" d="M226.7,95.59a2.79,2.79,0,0,0,2-.82l23.57-23.58,23.47,23.47a2.8,2.8,0,1,0,4-4L254.23,65.25a2.8,2.8,0,0,0-2-.82,2.84,2.84,0,0,0-2,.82L224.72,90.81a2.8,2.8,0,0,0,2,4.78Z"/><path class="cls-17" d="M357.76,299.05c22.65,1.5,33.91,9.13,40,16.37C412.6,333,408.16,361.27,425.93,369c4.56,2,9.71,2.24,11.18,6.17,2.34,6.3-7.34,15.13-9.57,17.16-1.14,1-19.25,11.33-34.7,12.14-7.32.39-8.39-29.57-17.51-43.56S334.48,311,357.76,299.05Z"/><path class="cls-18" d="M305.43,177.86c-6.88,2.36-32,12.14-41.79,36.27-6.77,16.73-3.28,33.24,2.7,61.53a50.69,50.69,0,0,0,3.07,10.19c4.34,10,8.88,10.51,10.41,16.77,2.13,8.71-5.4,12.74-3.5,20.07.72,2.77,3.75,6.64,17.65,13,22.25,10.11,63.71,4.08,77.54-7.08s14.57-18.78,11.15-31.8,8.38-24.12,11.41-47.39c2.74-21-4.39-48.35-24.16-63.67C343.63,165.34,309.86,176.34,305.43,177.86Z"/><rect class="cls-19" height="69.31" rx="16.25" width="39.69" x="312.56" y="263.12"/><path class="cls-20" d="M291.62,315.42s-26.11,6.93-31.29,37-21.8,106.41-21.8,106.41,5.91,7.63,23.21,7.28l17.3-.34Z"/><path class="cls-15" d="M312.56,305.19A102.93,102.93,0,0,0,291,314.77a99.8,99.8,0,0,0-10.28,6.94c-15.62,12.43-11.09,51.7-11.92,85.4a321.34,321.34,0,0,1-7.05,59s67.16,24.08,135,7.61a301.54,301.54,0,0,1-8.6-47.32c-5.86-58.62,8.14-94.18-12.35-112.3-3.85-3.41-10.83-7.88-23.5-8.91-3.5,14-16.81,21.23-26.66,18.05C318.69,321,313.58,313.77,312.56,305.19Z"/><path class="cls-15" d="M359.81,306.32s34.44,6.34,40.14,20.61,29.21,137.24,29.21,137.24S415,474,381.6,476.74Z"/><path class="cls-20" d="M392.75,475.71a1,1,0,0,1-1-.88L378.44,363.7c-8.37-17.66-.27-34.21.08-34.91a1,1,0,0,1,1.79.9c-.09.16-8.05,16.49,0,33.3a1.12,1.12,0,0,1,.1.31l13.33,111.29a1,1,0,0,1-.87,1.11Z"/><circle class="cls-21" cx="330.78" cy="230.29" r="59.89"/><path class="cls-21" d="M270.89,221.4c-5,41.08,23.13,74.89,54.16,77.49,28.13,2.35,53.54-21.37,62.16-45.43a65.34,65.34,0,0,0,3.46-27.22c-8.6-6.15-24.73-13.4-45.87-19.05C319.52,200.44,289.57,199.23,270.89,221.4Z"/><ellipse class="cls-22" cx="294.88" cy="257.91" rx="8.36" ry="5.74" transform="translate(-2.64 3.05) rotate(-0.59)"/><ellipse class="cls-22" cx="357.87" cy="257.91" rx="8.36" ry="5.74" transform="translate(-2.63 3.7) rotate(-0.59)"/><path class="cls-23" d="M328,256.34c-2,0-4.21-.26-5-1.28-.91-1.18-.13-6.56,2.32-16a1,1,0,0,1,1.94.51c-1.54,5.94-3,13-2.64,14.32.58.45,3.56.6,6.38.3a1,1,0,0,1,.21,2A32,32,0,0,1,328,256.34Zm-3.37-2.41Z"/><path class="cls-9" d="M359.83,228.18a15.24,15.24,0,0,0-8.47-3.54c-2.11-.22-5-.52-6,1.07a2.33,2.33,0,0,0-.13,2.34c.89,1.41,3.48.4,7.51.69,5.31.38,8.6,2.66,9,1.93C362.06,230.14,360.46,228.73,359.83,228.18Z"/><path class="cls-9" d="M293.33,228.18a15.24,15.24,0,0,1,8.47-3.54c2.11-.22,5-.52,6,1.07a2.3,2.3,0,0,1,.12,2.34c-.88,1.41-3.47.4-7.5.69-5.31.38-8.6,2.66-9,1.93C291.1,230.14,292.7,228.73,293.33,228.18Z"/><path class="cls-23" d="M330.54,282.52a17.75,17.75,0,0,1-5.06-.79.5.5,0,0,1,.32-1c.06,0,6.17,2,9.73-.67a.5.5,0,1,1,.6.8A9.22,9.22,0,0,1,330.54,282.52Z"/><path class="cls-13" d="M306,236.46a5.81,5.81,0,1,1-8.13,1.16,5.79,5.79,0,0,1,8.13-1.16"/><path class="cls-9" d="M290.36,236.78a7.16,7.16,0,0,0,2.93,2,3.8,3.8,0,0,0,2.95-.36c1-.51,1.92-1.39,3.1-2.06a5,5,0,0,1,4-.66,7.6,7.6,0,0,0-3.14,1.81,17.93,17.93,0,0,1-3,2.49,4.58,4.58,0,0,1-4.4.08,4.81,4.81,0,0,1-2.35-3.31"/><path class="cls-13" d="M346.18,237.19a5.8,5.8,0,1,0,8.09,1.45,5.8,5.8,0,0,0-8.09-1.45"/><path class="cls-9" d="M361.84,238.07a7.09,7.09,0,0,1-3,1.91,3.84,3.84,0,0,1-2.94-.47c-.94-.55-1.86-1.46-3-2.17a5,5,0,0,0-3.92-.81,7.63,7.63,0,0,1,3.07,1.93,18.77,18.77,0,0,0,3,2.6,4.57,4.57,0,0,0,4.39.24,4.82,4.82,0,0,0,2.47-3.23"/><path class="cls-9" d="M381,232.86a17.67,17.67,0,0,0,5.74,3.31c2.46,1.08,5.11,1.69,6.88.51a4.08,4.08,0,0,0,.42-.33c3.22-2.92,3.94-35.83-13.16-55.41-26.37-30.18-85.4-27-106.66,4.63-12.89,19.17-7.9,42.85-6,50.41a.44.44,0,0,0,.29.28c2.28,1.49,10.29-7.07,11.77-8.68l.18-.19c2.5-2.74,7.73-11.34,19-42.28,44.74-.51,59.54,8.86,64,18.51C363.47,203.62,374.22,226.89,381,232.86Z"/><path class="cls-20" d="M369.49,398.83s-2.17,28.33-30.75,44.78S355.84,429.61,369.49,398.83Z"/><path class="cls-20" d="M289.1,380s-3.9,28.15,20.54,50.29S295.9,413,289.1,380Z"/><path class="cls-17" d="M301.79,173.55c-22.26,13.9-22.8,47.86-23.13,69a144.51,144.51,0,0,0,1.54,22.36c2.73,20.85,4.42,33.71,13.88,43.57,1.54,1.6,13.32,13.52,28.91,12.72,21.83-1.13,30.29-26.13,52.7-27.07,3-.13,12.13-.7,15.43,4.8a11.22,11.22,0,0,1,1.57,6.26c-.3,7.94-6.65,29.92-32.88,38s-70.74,5.79-85-3.85a15.56,15.56,0,0,1-5.51-6.07c-4.38-9-.24-17.86,1-26.93,1.92-13.82-5.6-16.51-12.07-39.48-2.7-9.55-7.54-27.4-4.25-48.57,1.27-8.13,4.14-25.23,17.35-41.26,3.06-3.7,20.39-24.74,48.13-27.37,37-3.51,69.13,27.93,78.71,56.29,5.49,16.24,4.58,34.42,4.24,41.25-.84,16.83-3.79,15.82-5.72,36.33-2.52,26.82,1.5,41.05-8,48.23a15.06,15.06,0,0,1-9.51,3.08c-10.68-.64-17-15.36-17.61-16.71-6.92-16.58,6.63-29.62,12.73-54.21,3.1-12.51,14.22-57.42-8.87-81.1C349.92,166.93,320.38,161.92,301.79,173.55Z"/><path class="cls-17" d="M366.23,289.08s-35.14,49.59-30.9,82.88,10.79,58.39,5.4,68.19,5,7.5,17.14,8.08,27.82.39,26.35-11.47-13.7-57.36-11.11-73.54,19.63-20.37,21.38-47.8S376.31,278.94,366.23,289.08Z"/><path class="cls-18" d="M359.87,299.29c-1.7,1.07-3.44,2.22-5.2,3.47A112.46,112.46,0,0,0,341,314.19q-6.84,16.9-13.69,33.79l10.43-.68q8.19-18.85,17.4-38.18Q357.49,304.17,359.87,299.29Z"/><path class="cls-16" d="M313.74,267.8l31.24-1a17.55,17.55,0,0,1-17.4,10.82C318.3,276.82,314,268.25,313.74,267.8Z"/><path class="cls-6" d="M367.88,103.77l3.42-10a2.21,2.21,0,0,1,4.18,0l3.42,10a2.2,2.2,0,0,0,1.38,1.38l10,3.42a2.21,2.21,0,0,1,0,4.18l-10,3.42a2.2,2.2,0,0,0-1.38,1.38l-3.42,10a2.21,2.21,0,0,1-4.18,0l-3.42-10a2.2,2.2,0,0,0-1.38-1.38l-10-3.42a2.21,2.21,0,0,1,0-4.18l10-3.42A2.2,2.2,0,0,0,367.88,103.77Z"/><path class="cls-6" d="M58.47,324.11l3.41-10a2.21,2.21,0,0,1,4.19,0l3.42,10a2.22,2.22,0,0,0,1.37,1.37l10,3.42a2.21,2.21,0,0,1,0,4.19l-10,3.41a2.23,2.23,0,0,0-1.37,1.38l-3.42,10a2.21,2.21,0,0,1-4.19,0l-3.41-10a2.23,2.23,0,0,0-1.38-1.38l-10-3.41a2.21,2.21,0,0,1,0-4.19l10-3.42A2.21,2.21,0,0,0,58.47,324.11Z"/><path class="cls-6" d="M129.73,65.48l3.41-10a2.22,2.22,0,0,1,4.19,0l3.42,10a2.21,2.21,0,0,0,1.37,1.38l10,3.42a2.21,2.21,0,0,1,0,4.18l-10,3.42a2.21,2.21,0,0,0-1.37,1.38l-3.42,10a2.22,2.22,0,0,1-4.19,0l-3.41-10a2.2,2.2,0,0,0-1.38-1.38l-10-3.42a2.21,2.21,0,0,1,0-4.18l10-3.42A2.2,2.2,0,0,0,129.73,65.48Z"/></g></svg>